<svg xmlns="http://www.w3.org/2000/svg" viewBox="0 0 40 32" width="40" height="32">
    <path fill="currentColor" d="M20.54 25a.681.681 0 00.158-.074l6.174-3.69c.734-.438 1.128-.885 1.128-2.084v-6.444c0-.248-.016-.447-.063-.629l-7.397 4.434zm-8.477-12.921l7.397 4.434V25a.514.514 0 01-.15-.074l-6.182-3.69c-.726-.438-1.128-.885-1.128-2.084v-6.444c0-.248.016-.447.063-.629zM20.004 7c.443 0 .9.143 1.359.406l.068.04 5.567 3.326c.155.088.284.177.394.282l.04.04-7.428 4.426-7.436-4.425c.11-.109.233-.198.378-.286l.063-.037 4.07-2.442h.002l1.488-.883c.434-.262.868-.415 1.296-.443l.071-.003z"></path>
</svg>
