<?xml version="1.0" standalone="no"?><!DOCTYPE svg PUBLIC "-//W3C//DTD SVG 1.1//EN" "http://www.w3.org/Graphics/SVG/1.1/DTD/svg11.dtd"><svg t="1643091042287" class="icon" viewBox="0 0 1024 1024" version="1.1" xmlns="http://www.w3.org/2000/svg" p-id="750" xmlns:xlink="http://www.w3.org/1999/xlink" width="200" height="200"><defs><style type="text/css"></style></defs><path d="M737.828571 166.857143l0.457143-0.228572h0.228572L512 36.571429 285.6 166.628571h-0.228571l0.8 0.342858L100 274.285714v475.428572L512 987.428571l412-237.714285V274.285714l-186.171429-107.428571zM478.514286 890.971429L314.971429 796.571429V637.028571L166.857143 552.914286V353.028571l311.657143 179.771429v358.171429zM199.085714 294.285714l153.942857-88.914285 158.742858 91.085714 158.971428-91.314286 154.514286 89.142857-313.028572 180.571429-313.142857-180.571429zM857.142857 553.485714l-147.2 83.542857v158.971429l-164.457143 94.857143V533.028571L857.142857 353.257143v200.228571z" p-id="751"></path></svg>