<svg width="755" height="177" viewBox="0 0 755 177" fill="none" xmlns="http://www.w3.org/2000/svg">
<path fill-rule="evenodd" clip-rule="evenodd" d="M75.009 0L75.0089 50.5777L118.854 25.6455L150 45.1091V132.316L74.991 176.868V126.291L31.1461 151.223L0 131.759V44.5523L75.009 0ZM75.0089 50.5986L75.009 50.6134L42.0763 69.7749V106.28L74.991 126.27V126.255L107.924 107.094V70.5881L75.0089 50.5986Z" fill="#DEDEDE"/>
<path d="M188.456 121V55.5455H213.001C218.03 55.5455 222.249 56.419 225.658 58.1662C229.088 59.9133 231.677 62.3636 233.424 65.517C235.192 68.6491 236.077 72.3033 236.077 76.4794C236.077 80.6768 235.182 84.3203 233.392 87.4098C231.624 90.478 229.013 92.8537 225.562 94.5369C222.11 96.1989 217.87 97.0298 212.842 97.0298H195.359V87.1861H211.244C214.184 87.1861 216.592 86.7812 218.467 85.9716C220.342 85.1406 221.727 83.9368 222.621 82.3601C223.538 80.7621 223.996 78.8018 223.996 76.4794C223.996 74.157 223.538 72.1754 222.621 70.5348C221.705 68.8729 220.31 67.6158 218.435 66.7635C216.56 65.8899 214.141 65.4531 211.18 65.4531H200.313V121H188.456ZM222.27 91.3409L238.474 121H225.242L209.326 91.3409H222.27ZM246.991 121V55.5455H289.562V65.4851H258.848V83.255H287.357V93.1946H258.848V111.06H289.818V121H246.991ZM310.065 121H297.408L320.452 55.5455H335.089L358.165 121H345.509L328.026 68.9688H327.515L310.065 121ZM310.48 95.3359H344.997V104.86H310.48V95.3359ZM419.736 77.63H407.783C407.442 75.6697 406.814 73.9332 405.897 72.4205C404.981 70.8864 403.841 69.5866 402.478 68.5213C401.114 67.456 399.559 66.657 397.811 66.1243C396.086 65.5703 394.221 65.2933 392.218 65.2933C388.66 65.2933 385.507 66.1882 382.758 67.978C380.01 69.7464 377.858 72.3459 376.302 75.7763C374.747 79.1854 373.969 83.3509 373.969 88.2727C373.969 93.2798 374.747 97.4986 376.302 100.929C377.879 104.338 380.031 106.916 382.758 108.663C385.507 110.389 388.65 111.252 392.186 111.252C394.147 111.252 395.979 110.996 397.684 110.485C399.409 109.952 400.954 109.175 402.318 108.152C403.703 107.129 404.864 105.872 405.801 104.381C406.76 102.889 407.421 101.185 407.783 99.267L419.736 99.331C419.289 102.442 418.319 105.361 416.828 108.088C415.358 110.815 413.429 113.223 411.043 115.311C408.657 117.378 405.865 118.997 402.669 120.169C399.473 121.32 395.926 121.895 392.027 121.895C386.274 121.895 381.139 120.563 376.622 117.9C372.105 115.237 368.547 111.391 365.947 106.362C363.348 101.334 362.048 95.304 362.048 88.2727C362.048 81.2202 363.358 75.1903 365.979 70.1832C368.6 65.1548 372.169 61.3089 376.686 58.6456C381.203 55.9822 386.316 54.6506 392.027 54.6506C395.67 54.6506 399.058 55.1619 402.19 56.1847C405.322 57.2074 408.113 58.7095 410.564 60.6911C413.014 62.6513 415.027 65.0589 416.604 67.9141C418.202 70.7479 419.246 73.9865 419.736 77.63ZM427.718 65.4851V55.5455H479.941V65.4851H459.71V121H447.949V65.4851H427.718ZM521.09 55.5455L538.125 107.065H538.796L555.799 55.5455H568.839L545.763 121H531.126L508.082 55.5455H521.09ZM578.219 121H565.563L588.606 55.5455H603.244L626.319 121H613.663L596.181 68.9688H595.669L578.219 121ZM578.634 95.3359H613.151V104.86H578.634V95.3359ZM688.729 55.5455V121H678.183L647.341 76.4155H646.798V121H634.94V55.5455H645.551L676.361 100.162H676.936V55.5455H688.729ZM698.773 65.4851V55.5455H750.996V65.4851H730.765V121H719.004V65.4851H698.773Z" fill="#DEDEDE"/>
</svg>
