<?xml version="1.0" encoding="utf-8"?>
<svg width="100px" height="100px" viewBox="0 0 100 100" version="1.1" xmlns:xlink="http://www.w3.org/1999/xlink" xmlns="http://www.w3.org/2000/svg">
  <g id="github">
    <g id="github">
      <g id="Path">
        <path d="M0 50C0 22.3858 22.3858 0 50 0C77.6142 0 100 22.3858 100 50C100 77.6142 77.6142 100 50 100C22.3858 100 0 77.6142 0 50Z" id="Ellipse" fill="#D3D3D3" fill-opacity="0" fill-rule="evenodd" stroke="none" />
        <path d="M50 0C22.375 0 0 22.375 0 50C0 72.125 14.3125 90.8125 34.1875 97.4375C36.6875 97.875 37.625 96.375 37.625 95.0625C37.625 93.875 37.5625 89.9375 37.5625 85.75C25 88.0625 21.75 82.6875 20.75 79.875C20.1875 78.4375 17.75 74 15.625 72.8125C13.875 71.875 11.375 69.5625 15.5625 69.5C19.5 69.4375 22.3125 73.125 23.25 74.625C27.75 82.1875 34.9375 80.0625 37.8125 78.75C38.25 75.5 39.5625 73.3125 41 72.0625C29.875 70.8125 18.25 66.5 18.25 47.375C18.25 41.9375 20.1875 37.4375 23.375 33.9375C22.875 32.6875 21.125 27.5625 23.875 20.6875C23.875 20.6875 28.0625 19.375 37.625 25.8125C41.625 24.6875 45.875 24.125 50.125 24.125C54.375 24.125 58.625 24.6875 62.625 25.8125C72.1875 19.3125 76.375 20.6875 76.375 20.6875C79.125 27.5625 77.375 32.6875 76.875 33.9375C80.0625 37.4375 82 41.875 82 47.375C82 66.5625 70.3125 70.8125 59.1875 72.0625C61 73.625 62.5625 76.625 62.5625 81.3125C62.5625 88 62.5 93.375 62.5 95.0625C62.5 96.375 63.4375 97.9375 65.9375 97.4375C86.2903 90.5666 99.9945 71.4813 100 50C100 22.375 77.625 0 50 0L50 0Z" id="Shape" fill="#FFFFFF" fill-rule="evenodd" stroke="none" />
      </g>
    </g>
  </g>
</svg>